<?xml version="1.0" encoding="UTF-8" standalone="no"?>
<!-- Created with Inkscape (http://www.inkscape.org/) -->

<svg
   version="1.1"
   id="svg229"
   width="228"
   height="228"
   viewBox="0 0 228 228"
   sodipodi:docname="cnrs.svg"
   inkscape:version="1.2.2 (b0a8486541, 2022-12-01)"
   xmlns:inkscape="http://www.inkscape.org/namespaces/inkscape"
   xmlns:sodipodi="http://sodipodi.sourceforge.net/DTD/sodipodi-0.dtd"
   xmlns="http://www.w3.org/2000/svg"
   xmlns:svg="http://www.w3.org/2000/svg">
  <defs
     id="defs233" />
  <sodipodi:namedview
     id="namedview231"
     pagecolor="#ffffff"
     bordercolor="#000000"
     borderopacity="0.25"
     inkscape:showpageshadow="2"
     inkscape:pageopacity="0.0"
     inkscape:pagecheckerboard="0"
     inkscape:deskcolor="#d1d1d1"
     showgrid="false"
     inkscape:zoom="1.0350877"
     inkscape:cx="114"
     inkscape:cy="113.51695"
     inkscape:window-width="638"
     inkscape:window-height="1154"
     inkscape:window-x="640"
     inkscape:window-y="22"
     inkscape:window-maximized="1"
     inkscape:current-layer="g237">
    <inkscape:page
       x="0"
       y="0"
       id="page235"
       width="228"
       height="228" />
  </sodipodi:namedview>
  <g
     id="g237"
     inkscape:groupmode="layer"
     inkscape:label="Page 1"
     transform="matrix(1.3333333,0,0,-1.3333333,0,228)">
    <g
       id="g239"
       transform="scale(0.1)">
      <path
         d="m 815.906,1700.93 c -14.918,0.92 -29.742,1.4 -44.468,1.44 -210.954,0.56 -402.016,-89.1 -568.469,-267.01 C 52.0195,1274.03 1.20312,1144.17 1.57031,987.43 1.76953,903.395 16.6836,811.641 38.7695,703.164 80.2305,499.48 201.148,302.832 370.508,163.602 500.09,57.1172 644.594,2.67578 796.879,1.58984 875.957,1.02344 957.137,14.8516 1039.42,43.25 c 265.29,91.57 519.06,353.738 617.15,637.527 30.87,89.375 45.96,176.336 45.78,259.149 -0.42,203.784 -93.29,382.444 -271.08,510.094 -215.24,154.59 -422.26,238.99 -615.364,250.91"
         style="fill:#132746;fill-opacity:1;fill-rule:nonzero;stroke:none"
         id="path241" />
      <path
         d="m 534.676,894.426 h -58.328 l -0.071,-1.649 c -0.468,-11.312 -7.195,-110.55 -95.984,-110.55 -79.355,0 -119.629,71.113 -119.719,211.382 0.09,140.281 40.364,211.401 119.719,211.401 90.332,0 95.801,-106.05 95.984,-110.55 l 0.071,-1.64 h 58.328 c 5.39,0 10.625,2.2 14.375,6.05 3.601,3.7 5.449,8.48 5.207,13.45 -1.223,27.53 -15.332,164.81 -174.785,164.81 -128.871,0 -196.973,-97.93 -196.973,-283.22 0,-185.672 68.102,-283.812 196.973,-283.812 153.465,0 172.547,125.386 174.754,163.812 0.378,5.309 -1.434,10.399 -5.157,14.317 -3.718,3.945 -8.992,6.199 -14.394,6.199"
         style="fill:#ffffff;fill-opacity:1;fill-rule:nonzero;stroke:none"
         id="path243" />
      <path
         d="m 1381.07,1027.33 0.02,-0.02 -50.25,21.91 c -48.31,21.23 -65.44,41.88 -65.44,78.95 0,48.32 35.34,80.8 87.96,80.8 31.1,0 56.62,-6.38 87.77,-38.11 l 1.71,-1.74 26.8,24.53 c 15.54,14.41 11.04,27.4 4.56,35.74 -26.15,30.86 -68.15,47.8 -118.28,47.8 -96.69,0 -166.88,-63.08 -166.88,-149.98 0,-85.47 53.86,-121.19 112.03,-147.062 l 51.27,-22.882 c 51.52,-23.102 76.05,-42.809 76.05,-92.379 0,-67.606 -61.09,-85.629 -97.18,-85.629 -31.06,0 -65.62,6.637 -108.11,54.762 l -1.66,1.898 -27.92,-24.531 c -14.37,-12.637 -14.5,-23.481 -0.5,-41.489 38.46,-49.429 94.83,-59.8 135.36,-59.8 87.64,0 176.37,53.828 176.37,156.699 0,89.047 -49.44,128.574 -123.68,160.533"
         style="fill:#66cde2;fill-opacity:1;fill-rule:nonzero;stroke:none"
         id="path245" />
      <path
         d="m 925.703,1114.9 c 0,87.54 -70.937,161.71 -158.515,161.71 -41.184,0 -78.684,-15.71 -106.876,-41.47 v 30.1 h -52.734 c -15.883,0 -21.945,-10.37 -21.945,-22.29 V 732.129 c 0,-14.375 8.769,-22.063 21.699,-22.063 h 52.746 c 0,0 0,401.714 0,401.734 0,52.77 42.813,95.56 95.574,95.56 52.766,0 95.567,-42.79 95.567,-95.56 0,-0.02 0,-401.8 0,-401.8 h 52.414 c 14.531,0 22.07,8.062 22.07,21.973 0,0 0,382.427 0,382.927"
         style="fill:#66cde2;fill-opacity:1;fill-rule:nonzero;stroke:none"
         id="path247" />
      <path
         d="m 1198.09,1238.42 c 2.75,3.42 4.45,7.7 4.45,12.42 0,8.79 -5.74,16.17 -13.61,18.85 -15.26,5.11 -31.52,7.91 -48.41,7.91 -41.18,0 -78.68,-15.7 -106.88,-41.46 v 30.09 h -52.734 c -15.886,0 -21.965,-10.37 -21.965,-22.29 V 733.125 c 0,-14.375 8.801,-22.063 21.731,-22.063 h 52.738 c 0,0 0,401.718 0,401.728 0,52.78 42.8,95.57 95.58,95.57 13.83,0 26.95,-3 38.8,-8.28 l 30.47,38.23 -0.17,0.11"
         style="fill:#ffffff;fill-opacity:1;fill-rule:nonzero;stroke:none"
         id="path249" />
      <path
         d="m 770.02,157.438 c 0,-7.833 -6.348,-14.161 -14.18,-14.161 v 0 c -7.817,0 -14.16,6.328 -14.16,14.161 v 963.792 c 0,7.83 6.343,14.18 14.16,14.18 v 0 c 7.832,0 14.18,-6.35 14.18,-14.18 V 157.438"
         style="fill:#ffffff;fill-opacity:1;fill-rule:nonzero;stroke:none"
         id="path251" />
    </g>
  </g>
</svg>
