<?xml version="1.0" encoding="UTF-8" standalone="no"?>
<!-- Created with Inkscape (http://www.inkscape.org/) -->

<svg
   version="1.1"
   id="svg213"
   width="377.95334"
   height="377.95334"
   viewBox="0 0 377.95334 377.95334"
   sodipodi:docname="inp.svg"
   inkscape:version="1.2.2 (b0a8486541, 2022-12-01)"
   xmlns:inkscape="http://www.inkscape.org/namespaces/inkscape"
   xmlns:sodipodi="http://sodipodi.sourceforge.net/DTD/sodipodi-0.dtd"
   xmlns="http://www.w3.org/2000/svg"
   xmlns:svg="http://www.w3.org/2000/svg">
  <defs
     id="defs217">
    <clipPath
       clipPathUnits="userSpaceOnUse"
       id="clipPath229">
      <path
         d="M 0,283.465 H 283.465 V 0 H 0 Z"
         id="path227" />
    </clipPath>
  </defs>
  <sodipodi:namedview
     id="namedview215"
     pagecolor="#ffffff"
     bordercolor="#000000"
     borderopacity="0.25"
     inkscape:showpageshadow="2"
     inkscape:pageopacity="0.0"
     inkscape:pagecheckerboard="0"
     inkscape:deskcolor="#d1d1d1"
     showgrid="false"
     inkscape:zoom="0.62441571"
     inkscape:cx="188.97667"
     inkscape:cy="188.17592"
     inkscape:window-width="638"
     inkscape:window-height="1154"
     inkscape:window-x="640"
     inkscape:window-y="22"
     inkscape:window-maximized="1"
     inkscape:current-layer="g221">
    <inkscape:page
       x="0"
       y="0"
       id="page219"
       width="377.95334"
       height="377.95334" />
  </sodipodi:namedview>
  <g
     id="g221"
     inkscape:groupmode="layer"
     inkscape:label="Page 1"
     transform="matrix(1.3333333,0,0,-1.3333333,0,377.95333)">
    <g
       id="g223">
      <g
         id="g225"
         clip-path="url(#clipPath229)">
        <g
           id="g231"
           transform="translate(49.1117,60.7211)">
          <path
             d="M 0,0 C -7.095,0 -12.867,5.327 -12.867,11.875 V 25.926 H -7.14 V 11.875 c 0,-3.634 3.203,-6.59 7.14,-6.59 3.937,0 7.14,2.956 7.14,6.59 v 14.051 h 5.726 V 11.875 C 12.866,5.327 7.094,0 0,0"
             style="fill:#222a42;fill-opacity:1;fill-rule:nonzero;stroke:none"
             id="path233" />
        </g>
        <g
           id="g235"
           transform="translate(112.3607,76.0785)">
          <path
             d="m 0,0 9.379,-14.993 h 6.613 L 0,10.57 -15.992,-14.993 h 6.613 z"
             style="fill:#222a42;fill-opacity:1;fill-rule:nonzero;stroke:none"
             id="path237" />
        </g>
        <g
           id="g239"
           transform="translate(81.1693,60.725)">
          <path
             d="m 0,0 c -2.681,0 -5.39,0.693 -7.798,2.144 -6.602,3.98 -8.466,12.175 -4.154,18.268 4.312,6.094 13.192,7.814 19.794,3.834 L 4.711,19.821 C 0.752,22.207 -4.572,21.176 -7.157,17.522 -9.742,13.869 -8.625,8.955 -4.667,6.569 -0.708,4.184 4.616,5.214 7.202,8.868 l 4.794,-2.89 C 9.256,2.106 4.672,0 0,0"
             style="fill:#222a42;fill-opacity:1;fill-rule:nonzero;stroke:none"
             id="path241" />
        </g>
        <path
           d="M 93.767,71.277 H 81.028 v 5.285 h 12.739 z"
           style="fill:#222a42;fill-opacity:1;fill-rule:nonzero;stroke:none"
           id="path243" />
        <g
           id="g245"
           transform="translate(112.3612,64.7191)">
          <path
             d="M 0,0 -6.807,-10.881 H 6.807 Z"
             style="fill:#f1471d;fill-opacity:1;fill-rule:nonzero;stroke:none"
             id="path247" />
        </g>
        <g
           id="g249"
           transform="translate(212.0453,190.5653)">
          <path
             d="m 0,0 h -23.663 c -7.89,0 -14.286,-6.396 -14.286,-14.286 v -78.917 h 18.193 v 76.287 h 20.04 c 12.081,0 16.203,-6.252 16.203,-14.638 0,-8.528 -4.122,-14.782 -16.203,-14.782 h -12.64 V -63.108 H 0 c 24.162,0 34.964,13.361 34.964,31.554 C 34.964,-13.361 24.162,0 0,0"
             style="fill:#222a42;fill-opacity:1;fill-rule:nonzero;stroke:none"
             id="path251" />
        </g>
        <g
           id="g253"
           transform="translate(36.245,97.3617)">
          <path
             d="M 0,0 H 16.914 L 16.913,93.438 H 0 Z"
             style="fill:#222a42;fill-opacity:1;fill-rule:nonzero;stroke:none"
             id="path255" />
        </g>
        <g
           id="g257"
           transform="translate(36.2699,201.6087)">
          <path
             d="M 0,0 H 16.914 L 16.913,20.422 C 7.572,20.422 0,12.851 0,3.51 Z"
             style="fill:#f1471d;fill-opacity:1;fill-rule:nonzero;stroke:none"
             id="path259" />
        </g>
        <g
           id="g261"
           transform="translate(132.5873,156.5829)">
          <path
             d="m 0,0 -44.985,32.489 -10e-4,-0.014 c -1.778,1.097 -3.866,1.742 -6.108,1.742 -6.439,0 -11.658,-5.219 -11.658,-11.658 V -59.22 H -45.75 V 11.224 L 0,-21.86 Z"
             style="fill:#222a42;fill-opacity:1;fill-rule:nonzero;stroke:none"
             id="path263" />
        </g>
        <g
           id="g265"
           transform="translate(93.6844,131.5799)">
          <path
             d="m 0,0 44.985,-32.49 10e-4,0.015 c 1.778,-1.097 3.866,-1.742 6.108,-1.742 6.439,0 11.658,5.219 11.658,11.658 V 59.22 H 45.75 V -11.224 L 0,21.86 Z"
             style="fill:#f1471d;fill-opacity:1;fill-rule:nonzero;stroke:none"
             id="path267" />
        </g>
        <g
           id="g269"
           transform="translate(77.2689,216.0961)">
          <path
             d="M 0,0 C 0.477,0.502 1.049,0.901 1.699,1.184 3.102,1.793 4.946,1.721 6.255,1.129 6.957,0.812 7.525,0.405 7.947,-0.084 L 8.253,-0.439 11.82,3.623 11.537,3.894 C 10.664,4.727 9.522,5.396 8.142,5.886 5.444,6.84 2.056,6.877 -0.661,5.87 -2,5.371 -3.186,4.647 -4.184,3.717 -5.184,2.784 -5.978,1.64 -6.543,0.316 -7.109,-1.006 -7.396,-2.498 -7.396,-4.12 c 0,-1.604 0.282,-3.082 0.837,-4.394 0.557,-1.316 1.341,-2.459 2.33,-3.399 0.987,-0.941 2.183,-1.68 3.553,-2.196 1.363,-0.515 2.874,-0.777 4.489,-0.777 1.544,0 2.992,0.163 4.304,0.484 v 0 c 1.313,0.321 2.478,0.744 3.465,1.256 l 0.22,0.115 V -1.963 H 2.877 V -6.612 H 6.626 V -9.509 C 6.3,-9.631 5.949,-9.723 5.579,-9.785 5.104,-9.863 4.594,-9.904 4.063,-9.904 c -0.906,0 -1.719,0.144 -2.414,0.428 -0.692,0.281 -1.278,0.678 -1.744,1.178 -0.467,0.5 -0.824,1.109 -1.064,1.811 -0.243,0.711 -0.367,1.508 -0.367,2.367 0,0.835 0.136,1.613 0.403,2.311 C -0.856,-1.113 -0.479,-0.505 0,0"
             style="fill:#222a42;fill-opacity:1;fill-rule:nonzero;stroke:none"
             id="path271" />
        </g>
        <g
           id="g273"
           transform="translate(101.4545,217.537)">
          <path
             d="M 0,0 H 2.13 C 2.462,0 2.813,-0.026 3.172,-0.079 3.509,-0.128 3.813,-0.222 4.078,-0.358 4.326,-0.485 4.523,-0.659 4.68,-0.889 4.828,-1.108 4.903,-1.41 4.903,-1.785 4.903,-2.199 4.818,-2.533 4.653,-2.777 4.478,-3.036 4.259,-3.227 3.985,-3.363 3.691,-3.51 3.355,-3.614 2.987,-3.673 2.599,-3.734 2.216,-3.765 1.851,-3.765 H 0 Z m 9.24,-5.315 c 0.778,0.975 1.172,2.191 1.172,3.613 0,1.194 -0.232,2.215 -0.691,3.033 C 9.264,2.144 8.645,2.809 7.88,3.305 7.128,3.792 6.27,4.143 5.329,4.347 4.408,4.547 3.449,4.648 2.479,4.648 h -7.905 v -20.475 h 5.454 v 7.802 h 0.967 l 4.269,-7.802 h 6.523 l -5.251,8.599 c 1.122,0.424 2.03,1.065 2.704,1.913"
             style="fill:#222a42;fill-opacity:1;fill-rule:nonzero;stroke:none"
             id="path275" />
        </g>
        <g
           id="g277"
           transform="translate(124.2782,209.8461)">
          <path
             d="M 0,0 H 8.163 V 4.62 H 0 v 2.904 h 8.635 v 4.815 H -5.398 V -8.136 H 9.135 v 4.87 l -9.135,0 z"
             style="fill:#222a42;fill-opacity:1;fill-rule:nonzero;stroke:none"
             id="path279" />
        </g>
        <g
           id="g281"
           transform="translate(153.2704,210.2777)">
          <path
             d="m 0,0 -7.321,11.907 h -6.051 V -8.567 h 5.43 L -8.045,3.371 -0.697,-8.567 h 6.024 v 20.474 h -5.43 z"
             style="fill:#222a42;fill-opacity:1;fill-rule:nonzero;stroke:none"
             id="path283" />
        </g>
        <g
           id="g285"
           transform="translate(180.2987,212.0311)">
          <path
             d="m 0,0 c 0,-0.836 -0.132,-1.615 -0.392,-2.316 -0.257,-0.696 -0.621,-1.298 -1.082,-1.793 -0.459,-0.495 -1.012,-0.887 -1.643,-1.168 -1.262,-0.561 -2.964,-0.561 -4.222,0 -0.63,0.28 -1.178,0.672 -1.628,1.165 -0.452,0.494 -0.812,1.099 -1.071,1.796 -0.26,0.701 -0.391,1.48 -0.391,2.316 0,0.799 0.127,1.557 0.378,2.249 0.247,0.684 0.606,1.275 1.065,1.76 0.462,0.487 1.015,0.876 1.648,1.158 0.626,0.279 1.336,0.422 2.109,0.422 0.774,0 1.489,-0.143 2.127,-0.424 C -2.463,4.884 -1.911,4.496 -1.46,4.012 -1.008,3.525 -0.648,2.931 -0.391,2.245 -0.131,1.554 0,0.798 0,0 m 2.728,7.795 c -0.989,0.921 -2.18,1.641 -3.54,2.141 -2.709,0.99 -6.132,0.989 -8.82,-10e-4 -1.351,-0.499 -2.536,-1.219 -3.524,-2.14 C -14.147,6.874 -14.932,5.738 -15.489,4.421 -16.045,3.11 -16.327,1.623 -16.327,0 c 0,-1.603 0.282,-3.089 0.836,-4.419 0.557,-1.333 1.34,-2.491 2.33,-3.442 0.989,-0.95 2.175,-1.694 3.524,-2.211 1.346,-0.515 2.829,-0.777 4.408,-0.777 1.579,0 3.066,0.262 4.422,0.777 1.359,0.517 2.55,1.261 3.538,2.211 0.99,0.951 1.773,2.109 2.33,3.442 C 5.616,-3.088 5.897,-1.602 5.897,0 5.897,1.622 5.616,3.109 5.06,4.421 4.502,5.738 3.717,6.874 2.728,7.795"
             style="fill:#222a42;fill-opacity:1;fill-rule:nonzero;stroke:none"
             id="path287" />
        </g>
        <g
           id="g289"
           transform="translate(196.9691,210.0404)">
          <path
             d="M 0,0 H 2.23 C 3.175,0 3.935,-0.144 4.485,-0.426 4.96,-0.672 5.181,-1.095 5.181,-1.758 5.181,-2.154 5.102,-2.476 4.944,-2.711 4.778,-2.96 4.569,-3.147 4.307,-3.283 4.021,-3.429 3.697,-3.532 3.344,-3.59 2.967,-3.651 2.602,-3.682 2.257,-3.682 H 0 Z M 3.973,4.777 C 3.557,4.47 2.943,4.315 2.146,4.315 H 0 v 3.237 h 1.924 c 0.919,0 1.61,-0.135 2.053,-0.4 C 4.363,6.92 4.542,6.568 4.542,6.044 4.542,5.473 4.356,5.059 3.973,4.777 M 9.457,1.186 C 9.065,1.607 8.597,1.958 8.065,2.229 7.872,2.328 7.673,2.415 7.468,2.492 8.047,2.811 8.545,3.219 8.958,3.715 9.61,4.5 9.941,5.499 9.941,6.683 c 0,1.071 -0.227,1.976 -0.674,2.69 -0.441,0.7 -1.021,1.264 -1.722,1.674 -0.684,0.401 -1.455,0.688 -2.293,0.854 -0.818,0.162 -1.629,0.244 -2.411,0.244 H -5.398 V -8.33 h 8.239 c 0.97,0 1.928,0.101 2.849,0.301 0.941,0.204 1.793,0.544 2.533,1.011 0.757,0.478 1.372,1.119 1.829,1.903 0.46,0.792 0.694,1.772 0.694,2.913 0,0.698 -0.118,1.339 -0.35,1.904 -0.231,0.562 -0.547,1.061 -0.939,1.484"
             style="fill:#222a42;fill-opacity:1;fill-rule:nonzero;stroke:none"
             id="path291" />
        </g>
        <g
           id="g293"
           transform="translate(219.2377,222.1849)">
          <path
             d="M 0,0 H -5.593 V -20.475 H 7.608 v 4.954 H 0 Z"
             style="fill:#222a42;fill-opacity:1;fill-rule:nonzero;stroke:none"
             id="path295" />
        </g>
        <g
           id="g297"
           transform="translate(237.535,206.5804)">
          <path
             d="m 0,0 v 3.266 h 8.163 v 4.62 H 0 v 2.904 h 8.635 v 4.814 H -5.398 V -4.87 H 9.135 V 0 Z"
             style="fill:#222a42;fill-opacity:1;fill-rule:nonzero;stroke:none"
             id="path299" />
        </g>
      </g>
    </g>
  </g>
</svg>
