<?xml version="1.0" encoding="UTF-8"?>
<!-- Generator: Adobe Illustrator 25.2.1, SVG Export Plug-In . SVG Version: 6.00 Build 0)  -->
<svg version="1.1" id="Calque_1" xmlns="http://www.w3.org/2000/svg" xmlns:xlink="http://www.w3.org/1999/xlink" x="0px" y="0px" viewBox="0 0 530.08 354.72" style="enable-background:new 0 0 530.08 354.72;" xml:space="preserve">
<style type="text/css">
	.st0{fill:#2A2E46;}
	.st1{fill:#E84E0F;}
</style>
<g>
	<path class="st0" d="M112.98,182.73c-32.51,0-58.96-26.45-58.96-58.96V54.02h26.24v69.76c0,18.04,14.68,32.72,32.72,32.72   s32.72-14.68,32.72-32.72V54.02h26.24v69.76C171.93,156.29,145.48,182.73,112.98,182.73z"/>
	<g>
		<polygon class="st0" points="402.79,106.49 445.76,180.93 476.06,180.93 402.79,54.01 329.51,180.93 359.81,180.93   "/>
	</g>
	<path class="st0" d="M259.87,182.72c-12.28,0-24.7-3.44-35.73-10.65c-30.25-19.76-38.79-60.44-19.03-90.7   c19.76-30.25,60.44-38.79,90.7-19.03l-14.35,21.97c-18.14-11.85-42.53-6.73-54.38,11.41c-11.85,18.14-6.73,42.53,11.41,54.38   c18.14,11.85,42.53,6.73,54.38-11.41l21.97,14.35C302.28,172.26,281.27,182.72,259.87,182.72z"/>
	<rect x="259.22" y="104.09" class="st0" width="58.37" height="26.24"/>
	<g>
		<polygon class="st1" points="402.79,162.89 371.6,216.91 433.98,216.91   "/>
	</g>
	<g>
		<path class="st0" d="M58.46,242.51c-2.92-2.78-4.38-6.34-4.38-10.68v-23.34h8.12v22.96c0,2.28,0.68,4.11,2.03,5.5    c1.35,1.39,3.12,2.08,5.29,2.08s3.94-0.69,5.31-2.08c1.37-1.39,2.06-3.22,2.06-5.5v-22.96h8.06v23.34c0,4.34-1.46,7.9-4.38,10.68    c-2.92,2.78-6.6,4.17-11.05,4.17C65.06,246.68,61.38,245.29,58.46,242.51z"/>
		<path class="st0" d="M117.28,219.63c1.9,2.19,2.86,5.12,2.86,8.79v17.46h-7.8v-16.24c0-4.31-1.67-6.46-5.02-6.46    c-1.32,0-2.47,0.3-3.44,0.91c-0.98,0.61-1.73,1.48-2.24,2.62c-0.52,1.14-0.77,2.47-0.77,4.01v15.17h-7.8v-28.84h5.34l1.55,3.58    c0.53-0.68,1.15-1.27,1.84-1.79c0.69-0.52,1.45-0.96,2.27-1.33c0.82-0.37,1.68-0.66,2.59-0.85c0.91-0.2,1.86-0.29,2.86-0.29    C112.79,216.34,115.38,217.44,117.28,219.63z"/>
		<path class="st0" d="M128.36,205.93h7.8v7.26h-7.8V205.93z M128.36,217.04h7.8v28.84h-7.8V217.04z"/>
		<path class="st0" d="M171.72,217.04l-11.48,28.84h-7.21l-11.7-28.84h8.28l7.1,19.33l6.89-19.33H171.72z"/>
		<path class="st0" d="M203.71,233.65h-21.79c0.32,1.96,1.09,3.46,2.32,4.51c1.23,1.05,2.8,1.58,4.73,1.58    c1.32,0,2.51-0.29,3.58-0.88c1.07-0.59,1.9-1.4,2.51-2.43h8.22c-1.07,3.13-2.88,5.63-5.45,7.48c-2.56,1.85-5.52,2.78-8.87,2.78    c-4.27,0-7.83-1.46-10.68-4.38s-4.27-6.53-4.27-10.84c0-1.71,0.24-3.35,0.72-4.91c0.48-1.57,1.17-2.97,2.08-4.22    c0.91-1.25,1.97-2.32,3.18-3.23c1.21-0.91,2.58-1.61,4.11-2.11s3.15-0.75,4.86-0.75c2.88,0,5.47,0.68,7.77,2.03    c2.3,1.35,4.06,3.19,5.29,5.5c1.23,2.31,1.84,4.84,1.84,7.58C203.87,232.1,203.82,232.86,203.71,233.65z M184.57,224.3    c-1.19,0.96-2,2.3-2.43,4.01h13.94c-0.36-1.17-0.87-2.16-1.55-2.96c-0.68-0.8-1.49-1.42-2.43-1.84c-0.94-0.43-1.99-0.64-3.12-0.64    C187.23,222.86,185.76,223.34,184.57,224.3z"/>
		<path class="st0" d="M227.79,216.88v7.37h-3.36c-2.21,0-3.78,0.52-4.73,1.55c-0.94,1.03-1.42,2.72-1.42,5.07v15.01h-7.8v-28.84    h5.02l1.39,3.52c1.96-2.46,4.74-3.68,8.33-3.68H227.79z"/>
		<path class="st0" d="M237.01,245.4c-1.83-0.85-3.26-2.07-4.27-3.63s-1.52-3.36-1.52-5.39h7.58c0.04,0.85,0.26,1.58,0.67,2.16    c0.41,0.59,0.97,1.02,1.68,1.28s1.53,0.4,2.46,0.4c0.75,0,1.42-0.11,2.03-0.32c0.61-0.21,1.1-0.54,1.5-0.99    c0.39-0.44,0.59-0.97,0.59-1.58c0-0.89-0.46-1.55-1.39-1.98c-0.93-0.43-2.31-0.8-4.17-1.12c-1.17-0.18-2.15-0.36-2.91-0.53    c-0.77-0.18-1.67-0.49-2.72-0.93s-1.89-0.95-2.51-1.52c-0.62-0.57-1.17-1.35-1.63-2.35c-0.46-1-0.69-2.15-0.69-3.47    c0-2.71,1.07-4.91,3.2-6.62s4.94-2.56,8.41-2.56c3.47,0,6.27,0.88,8.38,2.64c2.12,1.76,3.18,4.09,3.18,6.97h-7.42    c0-2.28-1.44-3.42-4.33-3.42c-1.21,0-2.15,0.25-2.83,0.75c-0.68,0.5-1.01,1.17-1.01,2.03c0,0.36,0.1,0.69,0.29,0.99    c0.2,0.3,0.43,0.54,0.69,0.72s0.69,0.35,1.26,0.51c0.57,0.16,1.05,0.28,1.44,0.35l1.76,0.32c0.68,0.14,1.16,0.24,1.44,0.29    s0.77,0.15,1.44,0.29c0.68,0.14,1.18,0.28,1.52,0.4c0.34,0.12,0.8,0.29,1.39,0.51c0.59,0.21,1.03,0.44,1.34,0.67    c0.3,0.23,0.68,0.51,1.12,0.83c0.45,0.32,0.79,0.68,1.04,1.07c0.25,0.39,0.5,0.82,0.75,1.28c0.25,0.46,0.42,1,0.51,1.6    c0.09,0.61,0.13,1.25,0.13,1.92c0,2.96-1.1,5.31-3.31,7.08c-2.21,1.76-5.13,2.64-8.76,2.64    C240.95,246.68,238.84,246.25,237.01,245.4z"/>
		<path class="st0" d="M262.18,205.93h7.8v7.26h-7.8V205.93z M262.18,217.04h7.8v28.84h-7.8V217.04z"/>
		<path class="st0" d="M296.15,238.94v6.94h-5.5c-2.1,0-3.92-0.41-5.47-1.23c-1.55-0.82-2.73-2-3.55-3.55    c-0.82-1.55-1.23-3.39-1.23-5.53v-12.28h-5.23v-1.66l11.43-12.12h1.44v7.53h7.96v6.25h-7.8v11.27c0,1.39,0.38,2.47,1.15,3.23    s1.86,1.15,3.29,1.15H296.15z"/>
		<path class="st0" d="M330.11,233.65h-21.79c0.32,1.96,1.09,3.46,2.32,4.51c1.23,1.05,2.8,1.58,4.73,1.58    c1.32,0,2.51-0.29,3.58-0.88c1.07-0.59,1.9-1.4,2.51-2.43h8.22c-1.07,3.13-2.88,5.63-5.45,7.48c-2.56,1.85-5.52,2.78-8.87,2.78    c-4.27,0-7.83-1.46-10.68-4.38s-4.27-6.53-4.27-10.84c0-1.71,0.24-3.35,0.72-4.91c0.48-1.57,1.17-2.97,2.08-4.22    s1.97-2.32,3.18-3.23c1.21-0.91,2.58-1.61,4.11-2.11s3.15-0.75,4.86-0.75c2.88,0,5.47,0.68,7.77,2.03c2.3,1.35,4.06,3.19,5.29,5.5    c1.23,2.31,1.84,4.84,1.84,7.58C330.27,232.1,330.22,232.86,330.11,233.65z M310.97,224.3c-1.19,0.96-2,2.3-2.43,4.01h13.94    c-0.36-1.17-0.87-2.16-1.55-2.96c-0.68-0.8-1.49-1.42-2.43-1.84c-0.94-0.43-1.99-0.64-3.12-0.64    C313.63,222.86,312.16,223.34,310.97,224.3z M317.67,213.83h-5.88l2.88-8.12h8.33L317.67,213.83z"/>
		<path class="st0" d="M90.77,280.35c-0.04,5.91-1.83,10.78-5.39,14.61c-3.56,3.83-8.14,5.74-13.73,5.74    c-5.52,0-10.12-1.84-13.81-5.53c-3.69-3.68-5.53-8.32-5.53-13.91c0-5.62,1.82-10.29,5.45-13.99c3.63-3.7,8.21-5.55,13.73-5.55    c4.66,0,8.74,1.33,12.23,3.98c3.49,2.65,5.66,6.08,6.52,10.28H81.9c-0.53-1.35-1.3-2.52-2.3-3.5c-1-0.98-2.18-1.74-3.55-2.27    s-2.84-0.8-4.41-0.8c-3.31,0-6,1.1-8.06,3.31s-3.1,5.06-3.1,8.54c0,2.28,0.46,4.31,1.39,6.09c0.93,1.78,2.23,3.17,3.93,4.17    c1.69,1,3.64,1.5,5.85,1.5c1.6,0,3.12-0.27,4.54-0.8c1.42-0.53,2.64-1.29,3.66-2.27c1.01-0.98,1.75-2.09,2.22-3.34H70.85v-6.25    H90.77z"/>
		<path class="st0" d="M114.64,270.9v7.37h-3.36c-2.21,0-3.78,0.52-4.73,1.55c-0.94,1.03-1.42,2.72-1.42,5.07v15.01h-7.8v-28.84    h5.02l1.39,3.52c1.96-2.46,4.74-3.68,8.33-3.68H114.64z"/>
		<path class="st0" d="M147.32,287.67h-21.79c0.32,1.96,1.09,3.46,2.32,4.51c1.23,1.05,2.8,1.58,4.73,1.58    c1.32,0,2.51-0.29,3.58-0.88c1.07-0.59,1.9-1.4,2.51-2.43h8.22c-1.07,3.13-2.88,5.63-5.45,7.48c-2.56,1.85-5.52,2.78-8.87,2.78    c-4.27,0-7.83-1.46-10.68-4.38s-4.27-6.53-4.27-10.84c0-1.71,0.24-3.35,0.72-4.91c0.48-1.57,1.17-2.97,2.08-4.22    c0.91-1.25,1.97-2.32,3.18-3.23c1.21-0.91,2.58-1.61,4.11-2.11c1.53-0.5,3.15-0.75,4.86-0.75c2.88,0,5.47,0.68,7.77,2.03    c2.3,1.35,4.06,3.19,5.29,5.5c1.23,2.31,1.84,4.84,1.84,7.58C147.48,286.12,147.43,286.89,147.32,287.67z M128.17,278.32    c-1.19,0.96-2,2.3-2.43,4.01h13.94c-0.36-1.17-0.87-2.16-1.55-2.96c-0.68-0.8-1.49-1.42-2.43-1.84c-0.94-0.43-1.99-0.64-3.12-0.64    C130.84,276.88,129.37,277.36,128.17,278.32z"/>
		<path class="st0" d="M178.32,273.65c1.9,2.19,2.86,5.12,2.86,8.79v17.46h-7.8v-16.24c0-4.31-1.67-6.46-5.02-6.46    c-1.32,0-2.47,0.3-3.44,0.91c-0.98,0.6-1.73,1.48-2.24,2.62c-0.52,1.14-0.77,2.47-0.77,4.01v15.17h-7.8v-28.84h5.34l1.55,3.58    c0.53-0.68,1.15-1.27,1.84-1.79c0.69-0.52,1.45-0.96,2.27-1.33c0.82-0.37,1.68-0.66,2.59-0.85c0.91-0.2,1.86-0.29,2.86-0.29    C173.82,270.37,176.41,271.46,178.32,273.65z"/>
		<path class="st0" d="M195.11,298.73c-2.39-1.32-4.25-3.14-5.58-5.47c-1.34-2.33-2-4.92-2-7.77c0-4.38,1.48-8.01,4.43-10.89    s6.68-4.33,11.16-4.33c4.45,0,8.15,1.44,11.11,4.33s4.43,6.52,4.43,10.89c0,4.34-1.49,7.97-4.46,10.87    c-2.97,2.9-6.67,4.35-11.08,4.35C200.17,300.7,197.5,300.04,195.11,298.73z M208.62,291.17c1.42-1.48,2.14-3.37,2.14-5.69    c0-2.31-0.71-4.21-2.14-5.69c-1.42-1.48-3.27-2.22-5.53-2.22s-4.1,0.74-5.53,2.22c-1.42,1.48-2.14,3.37-2.14,5.69    c0,1.14,0.19,2.21,0.56,3.21c0.37,1,0.9,1.83,1.58,2.51c0.68,0.68,1.49,1.21,2.43,1.6s1.98,0.59,3.12,0.59    C205.37,293.38,207.2,292.65,208.62,291.17z"/>
		<path class="st0" d="M251.91,274.59c2.87,2.88,4.3,6.52,4.3,10.89c0,4.38-1.43,8.01-4.3,10.9c-2.87,2.88-6.49,4.33-10.87,4.33    c-3.45,0-6.46-1.07-9.03-3.2l-0.91,2.4h-5.77v-39.25h7.8v11.96c2.31-1.57,4.95-2.35,7.9-2.35    C245.42,270.26,249.04,271.7,251.91,274.59z M246.03,291.09c1.48-1.5,2.22-3.37,2.22-5.61c0-1.5-0.33-2.85-0.99-4.06    c-0.66-1.21-1.59-2.15-2.8-2.83c-1.21-0.68-2.55-1.01-4.03-1.01s-2.82,0.34-4.03,1.01c-1.21,0.68-2.15,1.62-2.83,2.83    c-0.68,1.21-1.01,2.56-1.01,4.06c0,2.24,0.75,4.11,2.24,5.61c1.5,1.5,3.37,2.24,5.63,2.24    C242.68,293.33,244.55,292.58,246.03,291.09z"/>
		<path class="st0" d="M262.88,260.65h7.8v39.25h-7.8V260.65z"/>
		<path class="st0" d="M307.04,287.67h-21.79c0.32,1.96,1.09,3.46,2.32,4.51c1.23,1.05,2.8,1.58,4.73,1.58    c1.32,0,2.51-0.29,3.58-0.88c1.07-0.59,1.9-1.4,2.51-2.43h8.22c-1.07,3.13-2.88,5.63-5.45,7.48c-2.56,1.85-5.52,2.78-8.87,2.78    c-4.27,0-7.83-1.46-10.68-4.38s-4.27-6.53-4.27-10.84c0-1.71,0.24-3.35,0.72-4.91c0.48-1.57,1.17-2.97,2.08-4.22    s1.97-2.32,3.18-3.23c1.21-0.91,2.58-1.61,4.11-2.11s3.15-0.75,4.86-0.75c2.88,0,5.47,0.68,7.77,2.03c2.3,1.35,4.06,3.19,5.29,5.5    c1.23,2.31,1.84,4.84,1.84,7.58C307.2,286.12,307.15,286.89,307.04,287.67z M287.9,278.32c-1.19,0.96-2,2.3-2.43,4.01h13.94    c-0.36-1.17-0.87-2.16-1.55-2.96c-0.68-0.8-1.49-1.42-2.43-1.84c-0.94-0.43-1.99-0.64-3.12-0.64    C290.56,276.88,289.09,277.36,287.9,278.32z"/>
		<path class="st0" d="M349.02,292.8h-14.9l-2.56,7.1h-8.54l14.63-37.38h7.64l15.11,37.38h-8.76L349.02,292.8z M336.68,285.75h9.77    l-4.91-13.35L336.68,285.75z"/>
		<path class="st0" d="M365.67,260.65h7.8v39.25h-7.8V260.65z"/>
		<path class="st0" d="M408.58,274.59c2.87,2.88,4.3,6.52,4.3,10.89c0,4.38-1.44,8.02-4.33,10.92s-6.48,4.35-10.79,4.35    c-2.96,0-5.61-0.8-7.96-2.4v11.96h-7.8v-39.25h5.18l1.33,2.62c2.56-2.28,5.64-3.42,9.24-3.42    C402.11,270.26,405.72,271.7,408.58,274.59z M402.74,291.14c1.5-1.5,2.24-3.38,2.24-5.66c0-1.5-0.34-2.85-1.01-4.06    c-0.68-1.21-1.61-2.15-2.8-2.83c-1.19-0.68-2.54-1.01-4.03-1.01c-1.5,0-2.85,0.34-4.06,1.01c-1.21,0.68-2.14,1.62-2.8,2.83    c-0.66,1.21-0.99,2.56-0.99,4.06c0,2.28,0.74,4.17,2.22,5.66s3.35,2.24,5.61,2.24S401.24,292.64,402.74,291.14z"/>
		<path class="st0" d="M447.33,287.67h-21.79c0.32,1.96,1.09,3.46,2.32,4.51c1.23,1.05,2.8,1.58,4.73,1.58    c1.32,0,2.51-0.29,3.58-0.88c1.07-0.59,1.9-1.4,2.51-2.43h8.22c-1.07,3.13-2.88,5.63-5.45,7.48c-2.56,1.85-5.52,2.78-8.87,2.78    c-4.27,0-7.83-1.46-10.68-4.38s-4.27-6.53-4.27-10.84c0-1.71,0.24-3.35,0.72-4.91c0.48-1.57,1.17-2.97,2.08-4.22    s1.97-2.32,3.18-3.23c1.21-0.91,2.58-1.61,4.11-2.11s3.15-0.75,4.86-0.75c2.88,0,5.47,0.68,7.77,2.03c2.3,1.35,4.06,3.19,5.29,5.5    c1.23,2.31,1.84,4.84,1.84,7.58C447.49,286.12,447.43,286.89,447.33,287.67z M428.18,278.32c-1.19,0.96-2,2.3-2.43,4.01h13.94    c-0.36-1.17-0.87-2.16-1.55-2.96c-0.68-0.8-1.49-1.42-2.43-1.84c-0.94-0.43-1.99-0.64-3.12-0.64    C430.84,276.88,429.37,277.36,428.18,278.32z"/>
		<path class="st0" d="M458.03,299.42c-1.83-0.85-3.26-2.07-4.27-3.63s-1.52-3.36-1.52-5.39h7.58c0.04,0.85,0.26,1.58,0.67,2.16    c0.41,0.59,0.97,1.02,1.68,1.28s1.53,0.4,2.46,0.4c0.75,0,1.42-0.11,2.03-0.32c0.6-0.21,1.1-0.54,1.5-0.99    c0.39-0.44,0.59-0.97,0.59-1.58c0-0.89-0.46-1.55-1.39-1.98c-0.93-0.43-2.31-0.8-4.17-1.12c-1.17-0.18-2.15-0.36-2.91-0.53    c-0.77-0.18-1.67-0.49-2.72-0.93c-1.05-0.45-1.89-0.95-2.51-1.52c-0.62-0.57-1.17-1.35-1.63-2.35c-0.46-1-0.69-2.15-0.69-3.47    c0-2.71,1.07-4.91,3.21-6.62c2.14-1.71,4.94-2.56,8.41-2.56c3.47,0,6.27,0.88,8.38,2.64c2.12,1.76,3.18,4.09,3.18,6.97h-7.42    c0-2.28-1.44-3.42-4.33-3.42c-1.21,0-2.15,0.25-2.83,0.75c-0.68,0.5-1.01,1.17-1.01,2.03c0,0.36,0.1,0.69,0.29,0.99    c0.2,0.3,0.43,0.54,0.69,0.72c0.27,0.18,0.68,0.35,1.25,0.51c0.57,0.16,1.05,0.28,1.44,0.35l1.76,0.32    c0.68,0.14,1.16,0.24,1.44,0.29c0.28,0.05,0.76,0.15,1.44,0.29c0.68,0.14,1.18,0.28,1.52,0.4c0.34,0.12,0.8,0.29,1.39,0.51    c0.59,0.21,1.03,0.44,1.33,0.67s0.68,0.51,1.12,0.83c0.45,0.32,0.79,0.68,1.04,1.07c0.25,0.39,0.5,0.82,0.75,1.28s0.42,1,0.51,1.6    c0.09,0.61,0.13,1.25,0.13,1.92c0,2.96-1.1,5.31-3.31,7.08c-2.21,1.76-5.13,2.64-8.76,2.64    C461.97,300.7,459.86,300.27,458.03,299.42z"/>
	</g>
</g>
</svg>